# MagicaVoxel @ Ephtracy

# material
mtllib TransparencyTest.mtl
usemtl palette

# normals
vn -1 0 0
vn 1 0 0
vn 0 0 1
vn 0 0 -1
vn 0 -1 0
vn 0 1 0

# texcoords
vt 0.306641 0.5
vt 0.439453 0.5
vt 0.841797 0.5
vt 0.994141 0.5

# verts
v -20 0 20
v -20 0 -20
v -20 40 20
v -20 40 -20
v 19 38 19
v 19 38 -18
v 19 39 8
v 19 39 -17
v 19 40 19
v 19 40 8
v 19 40 -17
v 19 40 -18
v -19 38 19
v -19 38 -18
v -19 39 8
v -19 39 -18
v -19 40 19
v -19 40 8
v -17 39 -17
v -17 39 -18
v -17 40 -17
v -17 40 -18
v 20 0 20
v 20 0 -20
v 20 40 20
v 20 40 -20
v -20 0 20
v -20 40 20
v 20 0 20
v 20 40 20
v -19 39 8
v -19 40 8
v 19 39 8
v 19 40 8
v -19 38 -18
v -19 39 -18
v -17 39 -18
v -17 40 -18
v 19 38 -18
v 19 40 -18
v -19 38 19
v -19 40 19
v 19 38 19
v 19 40 19
v -17 39 -17
v -17 40 -17
v 19 39 -17
v 19 40 -17
v -20 0 -20
v -20 40 -20
v 20 0 -20
v 20 40 -20
v -20 0 20
v 20 0 20
v -20 0 -20
v 20 0 -20
v -19 39 8
v 19 39 8
v -17 39 -17
v 19 39 -17
v -19 39 -18
v -17 39 -18
v -19 38 19
v 19 38 19
v -5 38 11
v 3 38 11
v -7 38 10
v -5 38 10
v 2 38 10
v 3 38 10
v 4 38 10
v -9 38 9
v -7 38 9
v -5 38 9
v 2 38 9
v 4 38 9
v 6 38 9
v -10 38 8
v -9 38 8
v -7 38 8
v 4 38 8
v 5 38 8
v 6 38 8
v 8 38 8
v 5 38 7
v 7 38 7
v 8 38 7
v 9 38 7
v -11 38 6
v -10 38 6
v -9 38 6
v 7 38 6
v 9 38 6
v 10 38 6
v 10 38 5
v 11 38 5
v -12 38 4
v -11 38 4
v -10 38 4
v 9 38 4
v 10 38 4
v 11 38 4
v 12 38 4
v -13 38 3
v -12 38 3
v -11 38 3
v 10 38 3
v 11 38 3
v 12 38 3
v 13 38 3
v 11 38 2
v 12 38 2
v 13 38 2
v 14 38 2
v -14 38 1
v -13 38 1
v -12 38 1
v 12 38 1
v 13 38 1
v -4 38 -0
v -2 38 -0
v 14 38 -0
v 15 38 -0
v -15 38 -1
v -14 38 -1
v -13 38 -1
v -4 38 -1
v -3 38 -1
v -2 38 -1
v -1 38 -1
v 13 38 -1
v 14 38 -1
v -3 38 -2
v -1 38 -2
v 1 38 -2
v 15 38 -2
v 16 38 -2
v -1 38 -3
v 0 38 -3
v 1 38 -3
v 2 38 -3
v 14 38 -3
v 15 38 -3
v -16 38 -4
v -15 38 -4
v -14 38 -4
v -1 38 -4
v 0 38 -4
v 1 38 -4
v 2 38 -4
v -3 38 -5
v -1 38 -5
v 1 38 -5
v -4 38 -6
v -3 38 -6
v -1 38 -6
v -5 38 -7
v -4 38 -7
v -17 38 -8
v -16 38 -8
v -4 38 -8
v -3 38 -8
v -16 38 -9
v -15 38 -9
v -5 38 -9
v -4 38 -9
v -17 38 -10
v -16 38 -10
v 15 38 -10
v 16 38 -10
v -18 38 -13
v -16 38 -13
v 13 38 -14
v 15 38 -14
v -18 38 -16
v -16 38 -16
v 13 38 -16
v 15 38 -16
v -19 38 -18
v 19 38 -18
v -20 40 20
v 20 40 20
v -19 40 19
v 19 40 19
v -19 40 8
v 19 40 8
v -17 40 -17
v 19 40 -17
v -19 40 -18
v -17 40 -18
v 19 40 -18
v -20 40 -20
v 20 40 -20

# faces
f 3/1/1 2/1/1 1/1/1
f 4/1/1 2/1/1 3/1/1
f 7/1/1 6/1/1 5/1/1
f 8/1/1 6/1/1 7/1/1
f 9/1/1 7/1/1 5/1/1
f 10/1/1 7/1/1 9/1/1
f 11/1/1 6/1/1 8/1/1
f 12/1/1 6/1/1 11/1/1
f 13/1/2 14/1/2 15/1/2
f 15/1/2 14/1/2 16/1/2
f 13/1/2 15/1/2 17/1/2
f 17/1/2 15/1/2 18/1/2
f 19/3/2 20/3/2 21/3/2
f 21/3/2 20/3/2 22/3/2
f 23/1/2 24/1/2 25/1/2
f 25/1/2 24/1/2 26/1/2
f 29/1/3 28/1/3 27/1/3
f 30/1/3 28/1/3 29/1/3
f 33/3/3 32/3/3 31/3/3
f 34/3/3 32/3/3 33/3/3
f 37/1/3 36/1/3 35/1/3
f 39/1/3 37/1/3 35/1/3
f 39/1/3 38/1/3 37/1/3
f 40/1/3 38/1/3 39/1/3
f 41/1/4 42/1/4 43/1/4
f 43/1/4 42/1/4 44/1/4
f 45/3/4 46/3/4 47/3/4
f 47/3/4 46/3/4 48/3/4
f 49/1/4 50/1/4 51/1/4
f 51/1/4 50/1/4 52/1/4
f 55/1/5 54/1/5 53/1/5
f 56/1/5 54/1/5 55/1/5
f 59/3/5 58/3/5 57/3/5
f 60/3/5 58/3/5 59/3/5
f 61/3/5 59/3/5 57/3/5
f 62/3/5 59/3/5 61/3/5
f 63/1/6 64/1/6 65/1/6
f 65/1/6 64/1/6 66/1/6
f 63/1/6 65/1/6 67/1/6
f 65/4/6 66/4/6 68/4/6
f 67/1/6 65/1/6 68/1/6
f 68/4/6 66/4/6 69/4/6
f 66/1/6 64/1/6 70/1/6
f 69/4/6 66/4/6 70/4/6
f 70/1/6 64/1/6 71/1/6
f 63/1/6 67/1/6 72/1/6
f 67/4/6 68/4/6 73/4/6
f 72/1/6 67/1/6 73/1/6
f 68/1/6 69/1/6 74/1/6
f 73/4/6 68/4/6 74/4/6
f 69/4/6 70/4/6 75/4/6
f 74/1/6 69/1/6 75/1/6
f 70/4/6 71/4/6 75/4/6
f 71/1/6 64/1/6 76/1/6
f 75/4/6 71/4/6 76/4/6
f 76/1/6 64/1/6 77/1/6
f 63/1/6 72/1/6 78/1/6
f 72/4/6 73/4/6 79/4/6
f 78/1/6 72/1/6 79/1/6
f 74/1/6 75/1/6 80/1/6
f 79/4/6 73/4/6 80/4/6
f 73/1/6 74/1/6 80/1/6
f 75/1/6 76/1/6 80/1/6
f 76/4/6 77/4/6 81/4/6
f 80/1/6 76/1/6 81/1/6
f 81/4/6 77/4/6 82/4/6
f 77/1/6 64/1/6 83/1/6
f 82/4/6 77/4/6 83/4/6
f 83/1/6 64/1/6 84/1/6
f 81/1/6 82/1/6 85/1/6
f 79/1/6 80/1/6 85/1/6
f 83/4/6 84/4/6 85/4/6
f 82/4/6 83/4/6 85/4/6
f 80/1/6 81/1/6 85/1/6
f 85/4/6 84/4/6 86/4/6
f 84/1/6 64/1/6 87/1/6
f 86/4/6 84/4/6 87/4/6
f 87/1/6 64/1/6 88/1/6
f 63/1/6 78/1/6 89/1/6
f 78/4/6 79/4/6 90/4/6
f 89/1/6 78/1/6 90/1/6
f 85/1/6 86/1/6 91/1/6
f 90/4/6 79/4/6 91/4/6
f 79/1/6 85/1/6 91/1/6
f 87/4/6 88/4/6 92/4/6
f 91/1/6 86/1/6 92/1/6
f 86/4/6 87/4/6 92/4/6
f 88/1/6 64/1/6 93/1/6
f 92/4/6 88/4/6 93/4/6
f 93/1/6 64/1/6 94/1/6
f 93/4/6 94/4/6 95/4/6
f 94/1/6 64/1/6 95/1/6
f 95/1/6 64/1/6 96/1/6
f 63/1/6 89/1/6 97/1/6
f 89/4/6 90/4/6 98/4/6
f 97/1/6 89/1/6 98/1/6
f 91/1/6 92/1/6 99/1/6
f 98/4/6 90/4/6 99/4/6
f 90/1/6 91/1/6 99/1/6
f 92/1/6 93/1/6 99/1/6
f 95/4/6 96/4/6 100/4/6
f 99/1/6 93/1/6 100/1/6
f 93/4/6 95/4/6 100/4/6
f 100/4/6 96/4/6 101/4/6
f 96/1/6 64/1/6 102/1/6
f 101/4/6 96/4/6 102/4/6
f 102/1/6 64/1/6 103/1/6
f 63/1/6 97/1/6 104/1/6
f 97/4/6 98/4/6 105/4/6
f 104/1/6 97/1/6 105/1/6
f 100/1/6 101/1/6 106/1/6
f 105/4/6 98/4/6 106/4/6
f 98/1/6 99/1/6 106/1/6
f 99/1/6 100/1/6 106/1/6
f 102/4/6 103/4/6 107/4/6
f 106/1/6 101/1/6 107/1/6
f 101/4/6 102/4/6 107/4/6
f 107/4/6 103/4/6 108/4/6
f 103/1/6 64/1/6 109/1/6
f 108/4/6 103/4/6 109/4/6
f 109/1/6 64/1/6 110/1/6
f 107/1/6 108/1/6 111/1/6
f 105/1/6 106/1/6 111/1/6
f 109/4/6 110/4/6 111/4/6
f 108/4/6 109/4/6 111/4/6
f 106/1/6 107/1/6 111/1/6
f 111/4/6 110/4/6 112/4/6
f 110/1/6 64/1/6 113/1/6
f 112/4/6 110/4/6 113/4/6
f 113/1/6 64/1/6 114/1/6
f 63/1/6 104/1/6 115/1/6
f 104/4/6 105/4/6 116/4/6
f 115/1/6 104/1/6 116/1/6
f 111/1/6 112/1/6 117/1/6
f 116/4/6 105/4/6 117/4/6
f 105/1/6 111/1/6 117/1/6
f 113/4/6 114/4/6 118/4/6
f 117/1/6 112/1/6 118/1/6
f 112/4/6 113/4/6 118/4/6
f 118/4/6 114/4/6 119/4/6
f 116/1/6 117/1/6 120/1/6
f 117/1/6 118/1/6 120/1/6
f 118/1/6 119/1/6 120/1/6
f 120/1/6 119/1/6 121/1/6
f 114/1/6 64/1/6 122/1/6
f 119/4/6 114/4/6 122/4/6
f 122/1/6 64/1/6 123/1/6
f 63/1/6 115/1/6 124/1/6
f 115/4/6 116/4/6 125/4/6
f 124/1/6 115/1/6 125/1/6
f 116/1/6 120/1/6 126/1/6
f 125/4/6 116/4/6 126/4/6
f 120/4/6 121/4/6 127/4/6
f 126/1/6 120/1/6 127/1/6
f 127/4/6 121/4/6 128/4/6
f 121/1/6 119/1/6 129/1/6
f 128/4/6 121/4/6 129/4/6
f 129/1/6 119/1/6 130/1/6
f 119/4/6 122/4/6 131/4/6
f 130/1/6 119/1/6 131/1/6
f 122/4/6 123/4/6 131/4/6
f 131/4/6 123/4/6 132/4/6
f 127/1/6 128/1/6 133/1/6
f 125/1/6 126/1/6 133/1/6
f 129/4/6 130/4/6 133/4/6
f 128/4/6 129/4/6 133/4/6
f 126/1/6 127/1/6 133/1/6
f 131/1/6 132/1/6 134/1/6
f 133/4/6 130/4/6 134/4/6
f 130/1/6 131/1/6 134/1/6
f 134/1/6 132/1/6 135/1/6
f 132/4/6 123/4/6 136/4/6
f 123/1/6 64/1/6 136/1/6
f 136/1/6 64/1/6 137/1/6
f 134/4/6 135/4/6 138/4/6
f 133/1/6 134/1/6 138/1/6
f 138/4/6 135/4/6 139/4/6
f 135/1/6 132/1/6 140/1/6
f 139/4/6 135/4/6 140/4/6
f 140/1/6 132/1/6 141/1/6
f 136/4/6 137/4/6 142/4/6
f 141/1/6 132/1/6 142/1/6
f 132/4/6 136/4/6 142/4/6
f 142/4/6 137/4/6 143/4/6
f 63/1/6 124/1/6 144/1/6
f 124/4/6 125/4/6 145/4/6
f 144/1/6 124/1/6 145/1/6
f 138/1/6 139/1/6 146/1/6
f 145/4/6 125/4/6 146/4/6
f 125/1/6 133/1/6 146/1/6
f 133/1/6 138/1/6 146/1/6
f 146/1/6 139/1/6 147/1/6
f 140/4/6 141/4/6 148/4/6
f 147/1/6 139/1/6 148/1/6
f 139/4/6 140/4/6 148/4/6
f 148/4/6 141/4/6 149/4/6
f 142/1/6 143/1/6 150/1/6
f 149/4/6 141/4/6 150/4/6
f 141/1/6 142/1/6 150/1/6
f 146/1/6 147/1/6 151/1/6
f 145/1/6 146/1/6 151/1/6
f 148/4/6 149/4/6 152/4/6
f 151/1/6 147/1/6 152/1/6
f 147/4/6 148/4/6 152/4/6
f 149/1/6 150/1/6 153/1/6
f 152/4/6 149/4/6 153/4/6
f 145/1/6 151/1/6 154/1/6
f 151/4/6 152/4/6 155/4/6
f 154/1/6 151/1/6 155/1/6
f 152/1/6 153/1/6 156/1/6
f 155/4/6 152/4/6 156/4/6
f 145/1/6 154/1/6 157/1/6
f 154/4/6 155/4/6 158/4/6
f 157/1/6 154/1/6 158/1/6
f 63/1/6 144/1/6 159/1/6
f 144/4/6 145/4/6 160/4/6
f 159/1/6 144/1/6 160/1/6
f 158/4/6 155/4/6 161/4/6
f 157/4/6 158/4/6 161/4/6
f 155/1/6 156/1/6 162/1/6
f 161/4/6 155/4/6 162/4/6
f 160/4/6 145/4/6 163/4/6
f 159/4/6 160/4/6 163/4/6
f 145/1/6 157/1/6 164/1/6
f 163/4/6 145/4/6 164/4/6
f 157/4/6 161/4/6 165/4/6
f 164/1/6 157/1/6 165/1/6
f 161/1/6 162/1/6 166/1/6
f 165/4/6 161/4/6 166/4/6
f 63/1/6 159/1/6 167/1/6
f 159/4/6 163/4/6 167/4/6
f 165/1/6 166/1/6 168/1/6
f 167/4/6 163/4/6 168/4/6
f 163/1/6 164/1/6 168/1/6
f 164/1/6 165/1/6 168/1/6
f 166/1/6 162/1/6 169/1/6
f 168/1/6 166/1/6 169/1/6
f 143/4/6 137/4/6 169/4/6
f 153/1/6 150/1/6 169/1/6
f 156/1/6 153/1/6 169/1/6
f 150/1/6 143/1/6 169/1/6
f 162/1/6 156/1/6 169/1/6
f 137/1/6 64/1/6 170/1/6
f 169/4/6 137/4/6 170/4/6
f 167/1/6 168/1/6 171/1/6
f 168/1/6 169/1/6 171/1/6
f 169/1/6 170/1/6 171/1/6
f 63/1/6 167/1/6 171/1/6
f 171/1/6 170/1/6 172/1/6
f 172/1/6 170/1/6 173/1/6
f 173/1/6 170/1/6 174/1/6
f 63/1/6 171/1/6 175/1/6
f 171/2/6 172/2/6 175/2/6
f 172/1/6 173/1/6 176/1/6
f 175/2/6 172/2/6 176/2/6
f 173/2/6 174/2/6 177/2/6
f 176/1/6 173/1/6 177/1/6
f 174/1/6 170/1/6 178/1/6
f 177/2/6 174/2/6 178/2/6
f 176/1/6 177/1/6 179/1/6
f 175/1/6 176/1/6 179/1/6
f 177/1/6 178/1/6 179/1/6
f 63/1/6 175/1/6 179/1/6
f 170/1/6 64/1/6 180/1/6
f 179/1/6 178/1/6 180/1/6
f 178/1/6 170/1/6 180/1/6
f 181/1/6 182/1/6 183/1/6
f 183/1/6 182/1/6 184/1/6
f 181/1/6 183/1/6 185/1/6
f 184/1/6 182/1/6 186/1/6
f 185/3/6 186/3/6 187/3/6
f 186/1/6 182/1/6 188/1/6
f 187/3/6 186/3/6 188/3/6
f 181/1/6 185/1/6 189/1/6
f 185/3/6 187/3/6 189/3/6
f 189/3/6 187/3/6 190/3/6
f 188/1/6 182/1/6 191/1/6
f 189/1/6 190/1/6 192/1/6
f 190/1/6 191/1/6 192/1/6
f 181/1/6 189/1/6 192/1/6
f 191/1/6 182/1/6 193/1/6
f 192/1/6 191/1/6 193/1/6
